<svg width="61" height="60" viewBox="0 0 61 60" fill="none" xmlns="http://www.w3.org/2000/svg">
<circle cx="30.5" cy="30.5" r="28.5" fill="white"/>
<path d="M30.4056 0.833374C13.6773 0.833374 0.067627 13.9175 0.067627 30C0.067627 46.0825 13.6773 59.1667 30.4056 59.1667C47.134 59.1667 60.7437 46.0825 60.7437 30C60.7437 13.9175 47.134 0.833374 30.4056 0.833374ZM6.13523 30C6.13523 27.378 6.6085 24.8609 7.4428 22.5071L12.2028 27.0834L18.2704 32.9167V38.75L24.338 44.5834L27.3718 47.5V53.1321C15.4217 51.6884 6.13523 41.8767 6.13523 30ZM49.6096 44.213C47.6285 42.6788 44.6251 41.6667 42.5409 41.6667V38.75C42.5409 37.2029 41.9016 35.7192 40.7637 34.6253C39.6258 33.5313 38.0825 32.9167 36.4732 32.9167H24.338V24.1667C25.9473 24.1667 27.4906 23.5521 28.6285 22.4582C29.7664 21.3642 30.4056 19.8805 30.4056 18.3334V15.4167H33.4394C35.0487 15.4167 36.592 14.8021 37.7299 13.7082C38.8678 12.6142 39.5071 11.1305 39.5071 9.58337V8.38462C48.39 11.8525 54.6761 20.2292 54.6761 30C54.6755 35.1471 52.893 40.1475 49.6096 44.213V44.213Z" fill="#711200"/>
</svg>
