<svg width="259" height="60" viewBox="0 0 259 60" fill="none" xmlns="http://www.w3.org/2000/svg">
<path d="M36.4056 0.833374C19.6773 0.833374 6.06763 13.9175 6.06763 30C6.06763 46.0825 19.6773 59.1667 36.4056 59.1667C53.134 59.1667 66.7437 46.0825 66.7437 30C66.7437 13.9175 53.134 0.833374 36.4056 0.833374ZM12.1352 30C12.1352 27.378 12.6085 24.8609 13.4428 22.5071L18.2028 27.0834L24.2704 32.9167V38.75L30.338 44.5834L33.3718 47.5V53.1321C21.4217 51.6884 12.1352 41.8767 12.1352 30ZM55.6096 44.213C53.6285 42.6788 50.6251 41.6667 48.5409 41.6667V38.75C48.5409 37.2029 47.9016 35.7192 46.7637 34.6253C45.6258 33.5313 44.0825 32.9167 42.4732 32.9167H30.338V24.1667C31.9473 24.1667 33.4906 23.5521 34.6285 22.4582C35.7664 21.3642 36.4056 19.8805 36.4056 18.3334V15.4167H39.4394C41.0487 15.4167 42.592 14.8021 43.7299 13.7082C44.8678 12.6142 45.507 11.1305 45.507 9.58337V8.38462C54.39 11.8525 60.6761 20.2292 60.6761 30C60.6755 35.1471 58.893 40.1475 55.6096 44.213Z" fill="#310101"/>
<path d="M109.941 21.748L105.183 40H99.8009L96.8889 27.988L93.8729 40H88.4909L83.8629 21.748H88.6209L91.2469 35.034L94.4969 21.748H99.3849L102.505 35.034L105.157 21.748H109.941ZM120.803 40.182C119.087 40.182 117.509 39.7833 116.071 38.986C114.649 38.1887 113.514 37.0793 112.665 35.658C111.833 34.2193 111.417 32.6073 111.417 30.822C111.417 29.0367 111.833 27.4333 112.665 26.012C113.514 24.5907 114.649 23.4813 116.071 22.684C117.509 21.8867 119.087 21.488 120.803 21.488C122.519 21.488 124.087 21.8867 125.509 22.684C126.947 23.4813 128.074 24.5907 128.889 26.012C129.721 27.4333 130.137 29.0367 130.137 30.822C130.137 32.6073 129.721 34.2193 128.889 35.658C128.057 37.0793 126.93 38.1887 125.509 38.986C124.087 39.7833 122.519 40.182 120.803 40.182ZM120.803 36.126C122.259 36.126 123.42 35.6407 124.287 34.67C125.171 33.6993 125.613 32.4167 125.613 30.822C125.613 29.21 125.171 27.9273 124.287 26.974C123.42 26.0033 122.259 25.518 120.803 25.518C119.329 25.518 118.151 25.9947 117.267 26.948C116.4 27.9013 115.967 29.1927 115.967 30.822C115.967 32.434 116.4 33.7253 117.267 34.696C118.151 35.6493 119.329 36.126 120.803 36.126ZM148.938 40H144.492L137.056 28.742V40H132.61V21.748H137.056L144.492 33.058V21.748H148.938V40ZM158.999 21.748C160.923 21.748 162.604 22.1293 164.043 22.892C165.481 23.6547 166.591 24.7293 167.371 26.116C168.168 27.4853 168.567 29.0713 168.567 30.874C168.567 32.6593 168.168 34.2453 167.371 35.632C166.591 37.0187 165.473 38.0933 164.017 38.856C162.578 39.6187 160.905 40 158.999 40H152.161V21.748H158.999ZM158.713 36.152C160.394 36.152 161.703 35.6927 162.639 34.774C163.575 33.8553 164.043 32.5553 164.043 30.874C164.043 29.1927 163.575 27.884 162.639 26.948C161.703 26.012 160.394 25.544 158.713 25.544H156.607V36.152H158.713ZM175.497 25.31V29.002H181.451V32.434H175.497V36.438H182.231V40H171.051V21.748H182.231V25.31H175.497ZM194.426 40L190.63 33.11H189.564V40H185.118V21.748H192.58C194.019 21.748 195.241 21.9993 196.246 22.502C197.269 23.0047 198.031 23.698 198.534 24.582C199.037 25.4487 199.288 26.4193 199.288 27.494C199.288 28.7073 198.941 29.7907 198.248 30.744C197.572 31.6973 196.567 32.3733 195.232 32.772L199.444 40H194.426ZM189.564 29.964H192.32C193.135 29.964 193.741 29.7647 194.14 29.366C194.556 28.9673 194.764 28.404 194.764 27.676C194.764 26.9827 194.556 26.4367 194.14 26.038C193.741 25.6393 193.135 25.44 192.32 25.44H189.564V29.964ZM213.961 21.748V25.31H206.525V29.158H212.089V32.616H206.525V40H202.079V21.748H213.961ZM220.666 21.748V32.668C220.666 33.76 220.934 34.6007 221.472 35.19C222.009 35.7793 222.798 36.074 223.838 36.074C224.878 36.074 225.675 35.7793 226.23 35.19C226.784 34.6007 227.062 33.76 227.062 32.668V21.748H231.508V32.642C231.508 34.2713 231.161 35.6493 230.468 36.776C229.774 37.9027 228.838 38.752 227.66 39.324C226.498 39.896 225.198 40.182 223.76 40.182C222.321 40.182 221.03 39.9047 219.886 39.35C218.759 38.778 217.866 37.9287 217.208 36.802C216.549 35.658 216.22 34.2713 216.22 32.642V21.748H220.666ZM239.076 36.568H244.9V40H234.63V21.748H239.076V36.568Z" fill="#310101"/>
</svg>
