<svg width="48" height="37" viewBox="0 0 48 37" fill="none" xmlns="http://www.w3.org/2000/svg">
<g clip-path="url(#clip0_12_630)">
<path d="M46.23 14.8305H2.07C0.1656 14.8305 0 16.4878 0 18.5381C0 20.5884 0.1656 22.2457 2.07 22.2457H46.23C48.1344 22.2457 48.3 20.5884 48.3 18.5381C48.3 16.4878 48.1344 14.8305 46.23 14.8305V14.8305ZM46.23 29.661H2.07C0.1656 29.661 0 31.3183 0 33.3686C0 35.4189 0.1656 37.0762 2.07 37.0762H46.23C48.1344 37.0762 48.3 35.4189 48.3 33.3686C48.3 31.3183 48.1344 29.661 46.23 29.661V29.661ZM2.07 7.41525H46.23C48.1344 7.41525 48.3 5.75794 48.3 3.70762C48.3 1.65731 48.1344 0 46.23 0H2.07C0.1656 0 0 1.65731 0 3.70762C0 5.75794 0.1656 7.41525 2.07 7.41525Z" fill="#310101"/>
</g>
<defs>
<clipPath id="clip0_12_630">
<rect width="48" height="37" fill="white"/>
</clipPath>
</defs>
</svg>
