<svg width="130" height="130" viewBox="0 0 130 130" fill="none" xmlns="http://www.w3.org/2000/svg">
<circle cx="65" cy="65" r="65" fill="white"/>
<path d="M65 121C95.9279 121 121 95.9279 121 65C121 34.0721 95.9279 9 65 9C34.0721 9 9 34.0721 9 65C9 95.9279 34.0721 121 65 121Z" fill="#6DA544"/>
<path d="M65 30.9131L111.261 65L65 99.087L18.7392 65L65 30.9131Z" fill="#FFDA44"/>
<path d="M65 84.4783C75.7575 84.4783 84.4782 75.7576 84.4782 65.0001C84.4782 54.2426 75.7575 45.522 65 45.522C54.2425 45.522 45.5219 54.2426 45.5219 65.0001C45.5219 75.7576 54.2425 84.4783 65 84.4783Z" fill="#F0F0F0"/>
<path d="M55.2608 63.7827C51.8737 63.7827 48.6049 64.2979 45.528 65.2538C45.6642 75.8938 54.3276 84.4784 65 84.4784C71.5992 84.4784 77.4276 81.1935 80.951 76.1729C74.9229 68.6267 65.6477 63.7827 55.2608 63.7827Z" fill="#0052B4"/>
<path d="M84.1172 68.732C84.3517 67.5236 84.4784 66.277 84.4784 65.0001C84.4784 54.2424 75.7577 45.522 65.0002 45.522C56.9734 45.522 50.0828 50.3784 47.1008 57.3124C49.7367 56.7662 52.4658 56.4785 55.2612 56.4785C66.5743 56.4783 76.8088 61.181 84.1172 68.732Z" fill="#0052B4"/>
</svg>
