<svg width="130" height="130" viewBox="0 0 130 130" fill="none" xmlns="http://www.w3.org/2000/svg">
<circle cx="65" cy="65" r="65" fill="white"/>
<path d="M64.5 115C92.3904 115 115 92.3904 115 64.5C115 36.6096 92.3904 14 64.5 14C36.6096 14 14 36.6096 14 64.5C14 92.3904 36.6096 115 64.5 115Z" fill="#D80027"/>
<path d="M41.6369 44.7344L45.9965 58.1484H60.101L48.699 66.4533L53.0586 79.8674L41.6369 71.5822L30.2152 79.8674L34.5945 66.4533L23.1729 58.1484H37.2773L41.6369 44.7344Z" fill="#FFDA44"/>
<path d="M73.8701 92.216L70.5363 88.1129L65.6047 90.0264L68.465 85.5879L65.1312 81.465L70.2404 82.8262L73.1205 78.3877L73.3967 83.6744L78.5256 85.0356L73.5742 86.9293L73.8701 92.216Z" fill="#FFDA44"/>
<path d="M80.4983 80.1828L82.0764 75.1328L77.7563 72.0752L83.043 71.9963L84.6014 66.9463L86.3176 71.9568L91.6043 71.8977L87.3631 75.0539L89.0596 80.0645L84.7395 77.0068L80.4983 80.1828Z" fill="#FFDA44"/>
<path d="M89.4343 51.0663L87.1066 55.8204L90.8941 59.5093L85.6666 58.7597L83.3388 63.494L82.4314 58.2862L77.1841 57.5366L81.8791 55.0708L80.9716 49.8433L84.7592 53.5321L89.4343 51.0663Z" fill="#FFDA44"/>
<path d="M74.0082 36.666L73.6136 41.933L78.5255 43.9254L73.3769 45.1879L73.0021 50.4746L70.2207 45.977L65.072 47.2395L68.4847 43.1955L65.6835 38.7176L70.5955 40.71L74.0082 36.666Z" fill="#FFDA44"/>
</svg>
