<svg width="130" height="130" viewBox="0 0 130 130" fill="none" xmlns="http://www.w3.org/2000/svg">
<circle cx="65" cy="65" r="65" fill="white"/>
<path d="M65.5 118C95.0472 118 119 94.0472 119 64.5C119 34.9528 95.0472 11 65.5 11C35.9528 11 12 34.9528 12 64.5C12 94.0472 35.9528 118 65.5 118Z" fill="#F0F0F0"/>
<path d="M65.5 11C44.2894 11 25.9623 23.3437 17.3087 41.2392H113.691C105.038 23.3437 86.7105 11 65.5 11Z" fill="#FF9811"/>
<path d="M65.5 118C86.7105 118 105.038 105.656 113.691 87.7607H17.3087C25.9623 105.656 44.2894 118 65.5 118Z" fill="#6DA544"/>
<path d="M65.5 83.1088C75.7773 83.1088 84.1086 74.7774 84.1086 64.5002C84.1086 54.223 75.7773 45.8916 65.5 45.8916C55.2228 45.8916 46.8914 54.223 46.8914 64.5002C46.8914 74.7774 55.2228 83.1088 65.5 83.1088Z" fill="#0052B4"/>
<path d="M65.5 76.1304C71.9233 76.1304 77.1304 70.9233 77.1304 64.5C77.1304 58.0767 71.9233 52.8696 65.5 52.8696C59.0767 52.8696 53.8696 58.0767 53.8696 64.5C53.8696 70.9233 59.0767 76.1304 65.5 76.1304Z" fill="#F0F0F0"/>
<path d="M65.5 50.1479L69.0881 58.2854L77.929 57.3238L72.6759 64.4997L77.929 71.6756L69.0881 70.7141L65.5 78.8515L61.912 70.7141L53.0711 71.6754L58.3241 64.4997L53.0711 57.3238L61.912 58.2854L65.5 50.1479Z" fill="#0052B4"/>
</svg>
