<svg width="130" height="130" viewBox="0 0 130 130" fill="none" xmlns="http://www.w3.org/2000/svg">
<circle cx="65" cy="65" r="65" fill="white"/>
<g clip-path="url(#clip0_7_239)">
<path d="M65.5 116C93.9427 116 117 92.9427 117 64.5C117 36.0573 93.9427 13 65.5 13C37.0573 13 14 36.0573 14 64.5C14 92.9427 37.0573 116 65.5 116Z" fill="#F0F0F0"/>
<path d="M45.3478 46.5871H113.797C106.52 26.9758 87.643 13 65.5 13C51.2783 13 38.4047 18.7654 29.0857 28.0857L45.3478 46.5871Z" fill="black"/>
<path d="M45.3478 82.4128H113.797C106.52 102.024 87.643 116 65.5 116C51.2783 116 38.4047 110.235 29.0857 100.914L45.3478 82.4128Z" fill="#6DA544"/>
<path d="M29.0839 28.084C8.97192 48.1959 8.97192 80.8041 29.0839 100.916C37.3949 92.6052 45.388 84.6121 65.5 64.5001L29.0839 28.084Z" fill="#D80027"/>
<path d="M34.4401 53.3044L37.2664 59.2147L43.6493 57.7395L40.7907 63.634L45.9236 67.7045L39.533 69.1447L39.5507 75.6957L34.4401 71.5972L29.3293 75.6957L29.3472 69.1447L22.9566 67.7045L28.0893 63.634L25.2311 57.7395L31.6136 59.2147L34.4401 53.3044Z" fill="#F0F0F0"/>
</g>
<defs>
<clipPath id="clip0_7_239">
<rect width="103" height="103" fill="white" transform="translate(14 13)"/>
</clipPath>
</defs>
</svg>
