<svg width="130" height="130" viewBox="0 0 130 130" fill="none" xmlns="http://www.w3.org/2000/svg">
<circle cx="65" cy="65" r="65" fill="white"/>
<g clip-path="url(#clip0_7_209)">
<path d="M65 116.133C93.2402 116.133 116.133 93.2402 116.133 65C116.133 36.7599 93.2402 13.8667 65 13.8667C36.7598 13.8667 13.8667 36.7599 13.8667 65C13.8667 93.2402 36.7598 116.133 65 116.133Z" fill="#F0F0F0"/>
<path d="M116.133 65.0001C116.133 44.7277 104.336 27.2114 87.2318 18.9406V111.059C104.336 102.789 116.133 85.2725 116.133 65.0001V65.0001Z" fill="#D80027"/>
<path d="M13.8667 65.0001C13.8667 85.2725 25.6643 102.789 42.7682 111.06V18.9406C25.6643 27.2114 13.8667 44.7277 13.8667 65.0001Z" fill="#6DA544"/>
<path d="M51.6608 65.0001C51.6608 72.3671 57.633 78.3393 65 78.3393C72.367 78.3393 78.3392 72.3671 78.3392 65.0001V60.5537H51.6608V65.0001Z" fill="#6DA544"/>
<path d="M82.7854 56.1072H69.4462C69.4462 53.6516 67.4554 51.6608 64.9998 51.6608C62.5442 51.6608 60.5534 53.6516 60.5534 56.1072H47.2142C47.2142 58.563 49.3532 60.5536 51.8086 60.5536H51.6606C51.6606 63.0094 53.6512 65 56.107 65C56.107 67.4558 58.0976 69.4464 60.5534 69.4464H69.4462C71.902 69.4464 73.8926 67.4558 73.8926 65C76.3484 65 78.339 63.0094 78.339 60.5536H78.1908C80.6466 60.5536 82.7854 58.563 82.7854 56.1072Z" fill="#FF9811"/>
</g>
<defs>
<clipPath id="clip0_7_209">
<rect width="102.267" height="102.267" fill="white" transform="translate(13.8667 13.8667)"/>
</clipPath>
</defs>
</svg>
