<svg width="130" height="130" viewBox="0 0 130 130" fill="none" xmlns="http://www.w3.org/2000/svg">
<circle cx="65" cy="65" r="65" fill="white"/>
<path d="M65.5 117C94.4949 117 118 93.4949 118 64.5C118 35.505 94.4949 12 65.5 12C36.505 12 13 35.505 13 64.5C13 93.4949 36.505 117 65.5 117Z" fill="#F0F0F0"/>
<path d="M118 64.5C118 41.927 103.753 22.6833 83.7608 15.2656V113.735C103.753 106.317 118 87.0733 118 64.5Z" fill="#D80027"/>
<path d="M13 64.5C13 87.0733 27.2472 106.317 47.2392 113.735V15.2656C27.2472 22.6833 13 41.927 13 64.5Z" fill="#D80027"/>
</svg>
