<svg width="1441" height="468" viewBox="0 0 1441 468" fill="none" xmlns="http://www.w3.org/2000/svg">
<path d="M890.5 115C889.3 123.8 882.667 130 879.5 132L885 138.5L930 126C956.333 117.333 1009.2 98.7 1010 93.5C1011 87 1006.5 81 1003.5 73.5C1000.5 66 998 65 995.5 63.5C993 62 983.5 59.5 982 54C980.5 48.5 976.5 43.5 972.5 38.5C968.5 33.5 958.5 34.5 958 34.5C957.5 34.5 941 44 936.5 49.5C932 55 923.5 56 919.5 61C915.5 66 899.5 85.5 895.5 91.5C891.5 97.5 892 104 890.5 115Z" fill="#310101"/>
<path d="M955.833 32.9062V39L967.167 38.3906V32.2969L964.5 31.6875V28.6406V20.7188V12.1875L966.5 10.9688L972.5 9.75L973.833 7.92188L978 8L977.833 6.09375L973.167 5.48438L967.167 4.875L963.833 4.26562V1.82812L963.167 0H959.833L959.167 1.21875V4.26562L955 4.875L951 5.5L945 6.09375L944.5 8L947.833 7.92188L949.833 9.14062L953.833 9.75L957.167 10.9688L957.833 17.6719V32.2969L955.833 32.9062Z" fill="#310101"/>
<path d="M515.5 274C482.3 313.2 166.167 354.333 0 372V468H1440.5V183.5C1433.83 182.167 1416.3 178.3 1399.5 173.5C1378.5 167.5 1363.5 147 1339.5 138.5C1315.5 130 1254.5 102.5 1229.5 94.5C1204.5 86.5 1174.5 86.5 1152 84.5C1129.5 82.5 1110.5 83 1090 86.5C1069.5 90 1040.5 84.5 1031.5 84.5C1022.5 84.5 1010 92 994 91.5C978 91 863.5 139.5 839.5 147C815.5 154.5 784 181.5 773 183C762 184.5 738.5 190.5 732 196C725.5 201.5 712.5 205.5 685 202.5C657.5 199.5 636.5 201 626.5 201C616.5 201 612 204 603 208.5C594 213 595.5 209 582 211C568.5 213 557 225 515.5 274Z" fill="#310101"/>
</svg>
