<svg width="1440" height="322" viewBox="0 0 1440 322" fill="none" xmlns="http://www.w3.org/2000/svg">
<path d="M44 63.6263H0V154.126V272.626V321.5H1440V290C1440 258.5 1161.5 142.626 1132.5 112.126C1103.5 81.6263 1060.5 63.6263 1009.5 49.6263C973.661 39.788 880 37.6263 822 63.6263C764 89.6263 705 76.1263 661 70.1263C617 64.1263 601.5 47.1263 580.5 37.6263C559.5 28.1263 543 8.12622 526 1.12622C509 -5.87378 484.5 22.1262 472 20.1263C462.225 18.5623 437.5 11.1263 419 20.1263C400.5 29.1263 323 76.1263 287 70.1263C251 64.1263 238.5 70.1263 211.5 76.1263C184.5 82.1263 131.5 87.6263 100 83.1263C74.8 79.5263 52.1667 68.6263 44 63.6263Z" fill="#711200"/>
</svg>
