<svg width="1440" height="431" viewBox="0 0 1440 431" fill="none" xmlns="http://www.w3.org/2000/svg">
<path d="M507.21 127.524C455.527 140.511 323.451 181.749 208.615 242.806C203.28 248.321 185.008 259.351 154.598 259.351C116.586 259.351 0.000654413 160.946 0.000277454 239L0.000188785 251.927C6.95397e-05 267.824 -9.76396e-05 290.11 7.24142e-05 298L8.00436e-05 347.5L0.000277454 430.5H95.4999H1439.5V345.5V0C1426 3.55809 1373.38 14.8035 1364.98 29.3205C1354.48 47.4667 1340.47 58.6747 1297.96 62.9444C1255.44 67.2141 1240.94 88.5627 1182.42 108.31C1123.9 128.057 1018.87 127.524 994.363 127.524C969.855 127.524 911.837 57.6073 865.823 43.197C819.808 28.7868 812.306 26.6519 785.297 29.3205C758.289 31.989 735.782 72.0175 707.773 88.5627C679.764 105.108 647.254 104.04 616.744 96.5683C586.234 89.0964 580.232 82.1581 559.726 81.0906C543.321 80.2367 517.88 111.69 507.21 127.524Z" fill="#8F321A"/>
</svg>
