<svg width="330" height="102" viewBox="0 0 330 102" fill="none" xmlns="http://www.w3.org/2000/svg">
<rect width="330" height="102" rx="10" fill="white"/>
<path d="M55.0799 15.9861C35.2847 15.9861 19.1799 31.469 19.1799 50.5C19.1799 69.5309 35.2847 85.0139 55.0799 85.0139C74.8752 85.0139 90.9799 69.5309 90.9799 50.5C90.9799 31.469 74.8752 15.9861 55.0799 15.9861ZM26.3599 50.5C26.3599 47.3972 26.92 44.4186 27.9072 41.6334L33.5399 47.0486L40.7199 53.9514V60.8541L47.8999 67.7569L51.4899 71.2083V77.8729C37.3489 76.1645 26.3599 64.554 26.3599 50.5ZM77.8046 67.3186C75.4603 65.5032 71.9062 64.3055 69.4399 64.3055V60.8541C69.4399 59.0234 68.6835 57.2677 67.3369 55.9731C65.9904 54.6786 64.1642 53.9514 62.2599 53.9514H47.8999V43.5972C49.8042 43.5972 51.6304 42.8699 52.9769 41.5754C54.3235 40.2809 55.0799 38.5251 55.0799 36.6944V33.243H58.6699C60.5742 33.243 62.4004 32.5158 63.7469 31.2213C65.0935 29.9267 65.8499 28.171 65.8499 26.3403V24.9217C76.3614 29.0254 83.7999 38.9378 83.7999 50.5C83.7993 56.5906 81.69 62.5078 77.8046 67.3186V67.3186Z" fill="#310101"/>
<path d="M140.628 31.4018L134.998 53H128.629L125.183 38.7858L121.614 53H115.246L109.769 31.4018H115.399L118.507 47.1236L122.353 31.4018H128.137L131.829 47.1236L134.967 31.4018H140.628ZM153.481 53.2154C151.451 53.2154 149.584 52.7436 147.882 51.8001C146.2 50.8566 144.856 49.5439 143.851 47.862C142.867 46.1595 142.374 44.252 142.374 42.1394C142.374 40.0267 142.867 38.1294 143.851 36.4475C144.856 34.7656 146.2 33.4529 147.882 32.5094C149.584 31.5659 151.451 31.0941 153.481 31.0941C155.512 31.0941 157.368 31.5659 159.05 32.5094C160.752 33.4529 162.086 34.7656 163.05 36.4475C164.034 38.1294 164.526 40.0267 164.526 42.1394C164.526 44.252 164.034 46.1595 163.05 47.862C162.065 49.5439 160.732 50.8566 159.05 51.8001C157.368 52.7436 155.512 53.2154 153.481 53.2154ZM153.481 48.4158C155.204 48.4158 156.578 47.8415 157.604 46.6928C158.65 45.5442 159.173 44.0264 159.173 42.1394C159.173 40.2318 158.65 38.714 157.604 37.5859C156.578 36.4373 155.204 35.863 153.481 35.863C151.738 35.863 150.343 36.427 149.297 37.5551C148.271 38.6832 147.759 40.2113 147.759 42.1394C147.759 44.0469 148.271 45.575 149.297 46.7236C150.343 47.8517 151.738 48.4158 153.481 48.4158ZM186.775 53H181.514L172.714 39.678V53H167.453V31.4018H172.714L181.514 44.7853V31.4018H186.775V53ZM198.68 31.4018C200.957 31.4018 202.946 31.853 204.649 32.7555C206.351 33.658 207.664 34.9297 208.587 36.5706C209.53 38.191 210.002 40.0677 210.002 42.2009C210.002 44.3135 209.53 46.1903 208.587 47.8312C207.664 49.4721 206.341 50.7438 204.618 51.6463C202.916 52.5488 200.936 53 198.68 53H190.588V31.4018H198.68ZM198.342 48.4465C200.331 48.4465 201.88 47.903 202.987 46.8159C204.095 45.7288 204.649 44.1905 204.649 42.2009C204.649 40.2113 204.095 38.6627 202.987 37.5551C201.88 36.4475 200.331 35.8937 198.342 35.8937H195.849V48.4465H198.342ZM218.203 35.6168V39.9857H225.249V44.0469H218.203V48.785H226.172V53H212.942V31.4018H226.172V35.6168H218.203ZM240.602 53L236.11 44.8468H234.849V53H229.588V31.4018H238.418C240.12 31.4018 241.566 31.6992 242.756 32.294C243.966 32.8889 244.868 33.7093 245.463 34.7554C246.058 35.7809 246.355 36.9295 246.355 38.2012C246.355 39.637 245.945 40.919 245.125 42.0471C244.325 43.1752 243.135 43.9751 241.556 44.4469L246.54 53H240.602ZM234.849 41.1241H238.11C239.074 41.1241 239.792 40.8882 240.264 40.4164C240.756 39.9447 241.002 39.2781 241.002 38.4166C241.002 37.5962 240.756 36.9501 240.264 36.4783C239.792 36.0065 239.074 35.7707 238.11 35.7707H234.849V41.1241ZM263.718 31.4018V35.6168H254.919V40.1703H261.503V44.2623H254.919V53H249.658V31.4018H263.718ZM271.652 31.4018V44.3238C271.652 45.616 271.97 46.6108 272.606 47.3082C273.242 48.0055 274.175 48.3542 275.406 48.3542C276.637 48.3542 277.58 48.0055 278.236 47.3082C278.893 46.6108 279.221 45.616 279.221 44.3238V31.4018H284.482V44.293C284.482 46.2211 284.072 47.8517 283.251 49.1849C282.431 50.5182 281.323 51.5232 279.929 52.2001C278.554 52.8769 277.016 53.2154 275.314 53.2154C273.611 53.2154 272.083 52.8872 270.729 52.2308C269.396 51.554 268.34 50.5489 267.56 49.2157C266.781 47.862 266.391 46.2211 266.391 44.293V31.4018H271.652ZM293.438 48.9388H300.329V53H288.176V31.4018H293.438V48.9388Z" fill="#310101"/>
<path d="M117.632 72.252H113.035V70.3966H117.632C118.522 70.3966 119.243 70.2547 119.795 69.9711C120.346 69.6875 120.748 69.2935 121 68.7893C121.26 68.2851 121.39 67.7099 121.39 67.0639C121.39 66.473 121.26 65.9176 121 65.3976C120.748 64.8776 120.346 64.46 119.795 64.1449C119.243 63.8218 118.522 63.6603 117.632 63.6603H113.567V79H111.286V61.7931H117.632C118.932 61.7931 120.031 62.0176 120.929 62.4667C121.827 62.9158 122.509 63.5382 122.974 64.334C123.439 65.1218 123.671 66.0239 123.671 67.0403C123.671 68.1433 123.439 69.0848 122.974 69.8647C122.509 70.6447 121.827 71.2396 120.929 71.6493C120.031 72.0511 118.932 72.252 117.632 72.252ZM131.294 63.3176L125.597 79H123.269L129.828 61.7931H131.329L131.294 63.3176ZM136.068 79L130.36 63.3176L130.324 61.7931H131.825L138.408 79H136.068ZM135.773 72.6301V74.4974H126.105V72.6301H135.773ZM140.712 61.7931H146.409C147.701 61.7931 148.792 61.9901 149.682 62.384C150.58 62.7779 151.262 63.3609 151.727 64.1331C152.199 64.8973 152.436 65.8388 152.436 66.9575C152.436 67.7454 152.274 68.4663 151.951 69.1202C151.636 69.7663 151.179 70.3178 150.58 70.7747C149.989 71.2238 149.28 71.5586 148.453 71.7792L147.815 72.0274H142.461L142.438 70.172H146.48C147.299 70.172 147.98 70.0302 148.524 69.7466C149.068 69.4551 149.477 69.0651 149.753 68.5766C150.029 68.0881 150.167 67.5484 150.167 66.9575C150.167 66.2957 150.037 65.7167 149.777 65.2203C149.517 64.7239 149.107 64.3418 148.548 64.074C147.996 63.7982 147.283 63.6603 146.409 63.6603H142.993V79H140.712V61.7931ZM150.769 79L146.586 71.2002L148.961 71.1884L153.204 78.8582V79H150.769ZM161.996 63.3176L156.3 79H153.972L160.531 61.7931H162.032L161.996 63.3176ZM166.771 79L161.063 63.3176L161.027 61.7931H162.528L169.111 79H166.771ZM166.475 72.6301V74.4974H156.808V72.6301H166.475ZM181.851 77.1446V79H173.247V77.1446H181.851ZM173.696 61.7931V79H171.415V61.7931H173.696ZM194.898 77.1446V79H186.294V77.1446H194.898ZM186.743 61.7931V79H184.462V61.7931H186.743ZM204.116 63.3176L198.419 79H196.091L202.65 61.7931H204.151L204.116 63.3176ZM208.89 79L203.182 63.3176L203.147 61.7931H204.647L211.23 79H208.89ZM208.595 72.6301V74.4974H198.928V72.6301H208.595ZM215.012 61.7931L219.148 68.3875L223.284 61.7931H225.943L220.507 70.3138L226.073 79H223.391L219.148 72.2756L214.905 79H212.223L217.789 70.3138L212.353 61.7931H215.012Z" fill="#310101"/>
</svg>
