<svg width="342" height="114" viewBox="0 0 342 114" fill="none" xmlns="http://www.w3.org/2000/svg">
<rect x="3" y="3" width="336" height="108" rx="13" fill="white" stroke="#310101" stroke-width="6"/>
<path d="M61.08 21.986C41.2848 21.986 25.18 37.4689 25.18 56.4999C25.18 75.5309 41.2848 91.0138 61.08 91.0138C80.8753 91.0138 96.98 75.5309 96.98 56.4999C96.98 37.4689 80.8753 21.986 61.08 21.986ZM32.36 56.4999C32.36 53.3971 32.9201 50.4186 33.9073 47.6333L39.54 53.0485L46.72 59.9513V66.8541L53.9 73.7568L57.49 77.2082V83.8729C43.349 82.1644 32.36 70.554 32.36 56.4999ZM83.8047 73.3185C81.4604 71.5031 77.9063 70.3055 75.44 70.3055V66.8541C75.44 65.0233 74.6835 63.2676 73.337 61.9731C71.9905 60.6785 70.1643 59.9513 68.26 59.9513H53.9V49.5971C55.8043 49.5971 57.6305 48.8699 58.977 47.5753C60.3235 46.2808 61.08 44.5251 61.08 42.6943V39.243H64.67C66.5743 39.243 68.4005 38.5157 69.747 37.2212C71.0935 35.9267 71.85 34.1709 71.85 32.3402V30.9217C82.3615 35.0254 89.8 44.9378 89.8 56.4999C89.7994 62.5906 87.6901 68.5078 83.8047 73.3185V73.3185Z" fill="#310101"/>
<path d="M146.628 37.4018L140.998 59H134.629L131.183 44.7858L127.614 59H121.246L115.769 37.4018H121.399L124.507 53.1236L128.353 37.4018H134.137L137.829 53.1236L140.967 37.4018H146.628ZM159.481 59.2154C157.451 59.2154 155.584 58.7436 153.882 57.8001C152.2 56.8566 150.856 55.5439 149.851 53.862C148.867 52.1595 148.374 50.252 148.374 48.1394C148.374 46.0267 148.867 44.1294 149.851 42.4475C150.856 40.7656 152.2 39.4529 153.882 38.5094C155.584 37.5659 157.451 37.0941 159.481 37.0941C161.512 37.0941 163.368 37.5659 165.05 38.5094C166.752 39.4529 168.086 40.7656 169.05 42.4475C170.034 44.1294 170.526 46.0267 170.526 48.1394C170.526 50.252 170.034 52.1595 169.05 53.862C168.065 55.5439 166.732 56.8566 165.05 57.8001C163.368 58.7436 161.512 59.2154 159.481 59.2154ZM159.481 54.4158C161.204 54.4158 162.578 53.8415 163.604 52.6928C164.65 51.5442 165.173 50.0264 165.173 48.1394C165.173 46.2318 164.65 44.714 163.604 43.5859C162.578 42.4373 161.204 41.863 159.481 41.863C157.738 41.863 156.343 42.427 155.297 43.5551C154.271 44.6832 153.759 46.2113 153.759 48.1394C153.759 50.0469 154.271 51.575 155.297 52.7236C156.343 53.8517 157.738 54.4158 159.481 54.4158ZM192.775 59H187.514L178.714 45.678V59H173.453V37.4018H178.714L187.514 50.7853V37.4018H192.775V59ZM204.68 37.4018C206.957 37.4018 208.946 37.853 210.649 38.7555C212.351 39.658 213.664 40.9297 214.587 42.5706C215.53 44.191 216.002 46.0677 216.002 48.2009C216.002 50.3135 215.53 52.1903 214.587 53.8312C213.664 55.4721 212.341 56.7438 210.618 57.6463C208.916 58.5488 206.936 59 204.68 59H196.588V37.4018H204.68ZM204.342 54.4465C206.331 54.4465 207.88 53.903 208.987 52.8159C210.095 51.7288 210.649 50.1905 210.649 48.2009C210.649 46.2113 210.095 44.6627 208.987 43.5551C207.88 42.4475 206.331 41.8937 204.342 41.8937H201.849V54.4465H204.342ZM224.203 41.6168V45.9857H231.249V50.0469H224.203V54.785H232.172V59H218.942V37.4018H232.172V41.6168H224.203ZM246.602 59L242.11 50.8468H240.849V59H235.588V37.4018H244.418C246.12 37.4018 247.566 37.6992 248.756 38.294C249.966 38.8889 250.868 39.7093 251.463 40.7554C252.058 41.7809 252.355 42.9295 252.355 44.2012C252.355 45.637 251.945 46.919 251.125 48.0471C250.325 49.1752 249.135 49.9751 247.556 50.4469L252.54 59H246.602ZM240.849 47.1241H244.11C245.074 47.1241 245.792 46.8882 246.264 46.4164C246.756 45.9447 247.002 45.2781 247.002 44.4166C247.002 43.5962 246.756 42.9501 246.264 42.4783C245.792 42.0065 245.074 41.7707 244.11 41.7707H240.849V47.1241ZM269.718 37.4018V41.6168H260.919V46.1703H267.503V50.2623H260.919V59H255.658V37.4018H269.718ZM277.652 37.4018V50.3238C277.652 51.616 277.97 52.6108 278.606 53.3082C279.242 54.0055 280.175 54.3542 281.406 54.3542C282.637 54.3542 283.58 54.0055 284.236 53.3082C284.893 52.6108 285.221 51.616 285.221 50.3238V37.4018H290.482V50.293C290.482 52.2211 290.072 53.8517 289.251 55.1849C288.431 56.5182 287.323 57.5232 285.929 58.2001C284.554 58.8769 283.016 59.2154 281.314 59.2154C279.611 59.2154 278.083 58.8872 276.729 58.2308C275.396 57.554 274.34 56.5489 273.56 55.2157C272.781 53.862 272.391 52.2211 272.391 50.293V37.4018H277.652ZM299.438 54.9388H306.329V59H294.176V37.4018H299.438V54.9388Z" fill="#310101"/>
<path d="M123.632 78.252H119.035V76.3966H123.632C124.522 76.3966 125.243 76.2547 125.795 75.9711C126.346 75.6875 126.748 75.2935 127 74.7893C127.26 74.2851 127.39 73.7099 127.39 73.0639C127.39 72.473 127.26 71.9176 127 71.3976C126.748 70.8776 126.346 70.46 125.795 70.1449C125.243 69.8218 124.522 69.6603 123.632 69.6603H119.567V85H117.286V67.7931H123.632C124.932 67.7931 126.031 68.0176 126.929 68.4667C127.827 68.9158 128.509 69.5382 128.974 70.334C129.439 71.1218 129.671 72.0239 129.671 73.0403C129.671 74.1433 129.439 75.0848 128.974 75.8647C128.509 76.6447 127.827 77.2396 126.929 77.6493C126.031 78.0511 124.932 78.252 123.632 78.252ZM137.294 69.3176L131.597 85H129.269L135.828 67.7931H137.329L137.294 69.3176ZM142.068 85L136.36 69.3176L136.324 67.7931H137.825L144.408 85H142.068ZM141.773 78.6301V80.4974H132.105V78.6301H141.773ZM146.712 67.7931H152.409C153.701 67.7931 154.792 67.9901 155.682 68.384C156.58 68.7779 157.262 69.3609 157.727 70.1331C158.199 70.8973 158.436 71.8388 158.436 72.9575C158.436 73.7454 158.274 74.4663 157.951 75.1202C157.636 75.7663 157.179 76.3178 156.58 76.7747C155.989 77.2238 155.28 77.5586 154.453 77.7792L153.815 78.0274H148.461L148.438 76.172H152.48C153.299 76.172 153.98 76.0302 154.524 75.7466C155.068 75.4551 155.477 75.0651 155.753 74.5766C156.029 74.0881 156.167 73.5484 156.167 72.9575C156.167 72.2957 156.037 71.7167 155.777 71.2203C155.517 70.7239 155.107 70.3418 154.548 70.074C153.996 69.7982 153.283 69.6603 152.409 69.6603H148.993V85H146.712V67.7931ZM156.769 85L152.586 77.2002L154.961 77.1884L159.204 84.8582V85H156.769ZM167.996 69.3176L162.3 85H159.972L166.531 67.7931H168.032L167.996 69.3176ZM172.771 85L167.063 69.3176L167.027 67.7931H168.528L175.111 85H172.771ZM172.475 78.6301V80.4974H162.808V78.6301H172.475ZM187.851 83.1446V85H179.247V83.1446H187.851ZM179.696 67.7931V85H177.415V67.7931H179.696ZM200.898 83.1446V85H192.294V83.1446H200.898ZM192.743 67.7931V85H190.462V67.7931H192.743ZM210.116 69.3176L204.419 85H202.091L208.65 67.7931H210.151L210.116 69.3176ZM214.89 85L209.182 69.3176L209.147 67.7931H210.647L217.23 85H214.89ZM214.595 78.6301V80.4974H204.928V78.6301H214.595ZM221.012 67.7931L225.148 74.3875L229.284 67.7931H231.943L226.507 76.3138L232.073 85H229.391L225.148 78.2756L220.905 85H218.223L223.789 76.3138L218.353 67.7931H221.012Z" fill="#310101"/>
</svg>
