<svg width="1109" height="569" viewBox="0 0 1109 569" fill="none" xmlns="http://www.w3.org/2000/svg">
<path d="M390.053 189.368C350.308 205.598 248.74 257.133 160.429 333.437C156.326 340.329 142.274 354.113 118.889 354.113C89.6568 354.113 0.000503255 231.136 0.000213367 328.681L0.000145179 344.836C5.34772e-05 364.702 -7.50865e-05 392.554 5.56877e-05 402.413L6.15549e-05 464.274L0.000213367 568H73.4411H1107V461.775L1109 31C1098.61 35.4466 1056.15 48.5001 1049.69 66.6421C1041.62 89.3196 1030.85 103.326 998.152 108.662C965.459 113.998 954.305 140.678 909.303 165.356C864.301 190.035 783.529 189.368 764.682 189.368C745.835 189.368 701.218 101.992 665.832 83.9837C630.446 65.9751 624.677 63.3072 603.907 66.6421C583.137 69.977 565.829 120.001 544.289 140.678C522.75 161.354 497.749 160.02 474.287 150.682C450.824 141.345 446.209 132.674 430.439 131.34C417.823 130.273 398.258 169.58 390.053 189.368Z" fill="#8F321A"/>
<path d="M33.8051 246.033H0V359.158V507.283V568.375H1106.35V529C1106.35 489.625 892.377 344.783 870.096 306.658C847.816 268.533 814.779 246.033 775.596 228.533C748.06 216.235 676.101 213.533 631.54 246.033C586.979 278.533 541.649 261.658 507.844 254.158C474.039 246.658 462.131 225.408 445.996 213.533C429.862 201.658 417.185 176.658 404.124 167.908C391.063 159.158 372.24 194.158 362.636 191.658C355.126 189.703 336.13 180.408 321.916 191.658C307.703 202.908 248.16 261.658 220.501 254.158C192.843 246.658 183.239 254.158 162.495 261.658C141.751 269.158 101.031 276.033 76.8297 270.408C57.4686 265.908 40.0795 252.283 33.8051 246.033Z" fill="#711200"/>
<path d="M684.938 127.75C684.016 138.75 678.919 146.5 676.486 149L680.712 157.125L715.285 141.5C735.517 130.667 776.134 107.375 776.749 100.875C777.517 92.7501 774.06 85.2501 771.755 75.8751C769.45 66.5001 767.53 65.2501 765.609 63.3751C763.688 61.5001 756.389 58.3751 755.237 51.5001C754.084 44.6251 751.011 38.3751 747.938 32.1252L747.938 32.1251C744.865 25.8751 737.182 27.1251 736.798 27.1251C736.413 27.1251 723.737 39.0001 720.279 45.8751C716.822 52.7501 710.291 54.0001 707.218 60.2501C704.145 66.5001 691.852 90.8751 688.779 98.3751C685.706 105.875 686.09 114 684.938 127.75Z" fill="#310101"/>
<path d="M734.796 24.4688V29L743.592 28.5469V24.0156L741.522 23.5625V21.2969V15.4062V9.0625L743.075 8.15625L747.731 7.25L748.766 5.89062L752 5.94872L751.871 4.53125L748.249 4.07812L743.592 3.625L741.005 3.17188V1.35938L740.488 0H737.9L737.383 0.90625V3.17188L734.149 3.625L731.045 4.08974L726.388 4.53125L726 5.94872L728.587 5.89062L730.139 6.79688L733.244 7.25L735.831 8.15625L736.348 13.1406V24.0156L734.796 24.4688Z" fill="#310101"/>
<path d="M396.825 326.5C371.317 375.5 128.433 426.917 0.767578 449V569H1107.5V213.375C1102.38 211.708 1088.91 206.875 1076 200.875C1059.86 193.375 1048.34 167.75 1029.9 157.125C1011.46 146.5 964.596 112.125 945.389 102.125C926.181 92.1248 903.132 92.1248 885.846 89.6248C868.559 87.1248 853.961 87.7498 838.211 92.1248C822.461 96.4998 800.18 89.6248 793.266 89.6248C786.351 89.6248 776.747 98.9998 764.455 98.3748C752.162 97.7498 664.192 158.375 645.753 167.75C627.314 177.125 603.112 210.875 594.661 212.75C586.21 214.625 568.155 222.125 563.161 229C558.167 235.875 548.179 240.875 527.051 237.125C505.923 233.375 489.789 235.25 482.106 235.25C474.423 235.25 470.965 239 464.051 244.625C457.136 250.25 458.288 245.25 447.916 247.75C437.544 250.25 428.709 265.25 396.825 326.5Z" fill="#310101"/>
</svg>
