<svg width="1440" height="1026" viewBox="0 0 1440 1026" fill="none" xmlns="http://www.w3.org/2000/svg">
<rect width="1440" height="1024" fill="url(#paint0_linear_82_61)"/>
<path d="M507.386 722.665C455.685 735.668 323.564 776.955 208.688 838.084C203.351 843.605 185.072 854.648 154.652 854.648C116.627 854.648 0.00065464 756.127 0.000277551 834.273L0.00018885 847.216C6.95638e-05 863.131 -9.76735e-05 885.444 7.24393e-05 893.343L8.00714e-05 942.902L0.000277551 1026H95.5331H1440V940.899V603C1426.49 606.562 1373.86 609.812 1365.45 624.346C1354.95 642.513 1340.94 653.735 1298.41 658.009C1255.88 662.284 1241.37 683.658 1182.83 703.429C1124.29 723.2 1019.22 722.665 994.708 722.665C970.192 722.665 912.154 652.666 866.123 638.239C820.093 623.811 812.588 621.674 785.57 624.346C758.552 627.017 736.037 667.093 708.019 683.658C680 700.223 647.479 699.154 616.958 691.673C586.438 684.192 580.434 677.246 559.921 676.177C543.51 675.322 518.06 706.813 507.386 722.665Z" fill="#8F321A"/>
<path d="M44.9688 765.725C31.8112 765.725 3.5975 766.6 0 766.6V855.238L0.999306 975.05V1024H1440V992.451C1440 960.902 1161.69 844.848 1132.71 814.301C1103.73 783.753 1060.76 765.725 1009.8 751.703C973.984 741.85 880.389 739.685 822.429 765.725C764.469 791.766 705.51 778.245 661.541 772.235C617.571 766.226 602.082 749.2 581.096 739.685C560.111 730.17 543.622 710.139 526.634 703.128C509.646 696.117 485.163 724.161 472.672 722.158C462.903 720.591 438.196 713.144 419.709 722.158C401.221 731.172 323.775 778.245 287.8 772.235C251.825 766.226 239.334 772.235 212.353 778.245C185.371 784.254 132.408 789.763 100.93 785.256C75.7474 781.65 53.1298 770.733 44.9688 765.725Z" fill="#711200"/>
<path d="M890.5 671C889.3 679.8 882.667 686 879.5 688L885 694.5L930 682C956.333 673.333 1009.2 654.7 1010 649.5C1011 643 1006.5 637 1003.5 629.5C1000.5 622 998 621 995.5 619.5C993 618 983.5 615.5 982 610C980.5 604.5 976.5 599.5 972.5 594.5C968.5 589.5 958.5 590.5 958 590.5C957.5 590.5 941 600 936.5 605.5C932 611 923.5 612 919.5 617C915.5 622 899.5 641.5 895.5 647.5C891.5 653.5 892 660 890.5 671Z" fill="#310101"/>
<path d="M955.833 588.906V595L967.167 594.391V588.297L964.5 587.688V584.641V576.719V568.188L966.5 566.969L972.5 565.75L973.833 563.922L978 564L977.833 562.094L973.167 561.484L967.167 560.875L963.833 560.266V557.828L963.167 556H959.833L959.167 557.219V560.266L955 560.875L951 561.5L945 562.094L944.5 564L947.833 563.922L949.833 565.141L953.833 565.75L957.167 566.969L957.833 573.672V588.297L955.833 588.906Z" fill="#310101"/>
<path d="M515.321 831.833C482.133 871.067 166.109 912.236 0 929.918V1026H1440V741.256C1433.34 739.921 1415.81 736.051 1399.01 731.247C1378.02 725.242 1363.03 704.724 1339.04 696.217C1315.04 687.71 1254.06 660.186 1229.07 652.179C1204.08 644.173 1174.09 644.173 1151.6 642.171C1129.11 640.169 1110.11 640.669 1089.62 644.173C1069.13 647.676 1040.14 642.171 1031.14 642.171C1022.15 642.171 1009.65 649.677 993.655 649.177C977.661 648.676 863.2 697.218 839.209 704.724C815.217 712.231 783.728 739.254 772.732 740.755C761.736 742.257 738.244 748.262 731.746 753.766C725.248 759.271 712.253 763.275 684.762 760.272C657.272 757.269 636.279 758.771 626.283 758.771C616.286 758.771 611.788 761.773 602.791 766.277C593.794 770.781 595.293 766.778 581.798 768.779C568.303 770.781 556.807 782.791 515.321 831.833Z" fill="#310101"/>
<rect width="1440" height="1026" fill="#010000" fill-opacity="0.35"/>
<defs>
<linearGradient id="paint0_linear_82_61" x1="807.5" y1="1.36156e-07" x2="799.5" y2="652" gradientUnits="userSpaceOnUse">
<stop stop-color="#DDA390"/>
<stop offset="1" stop-color="#FD9D45"/>
</linearGradient>
</defs>
</svg>
